#!OML:ASF E:\Steps\Project 1\Capture day 1\Session 2\Subject.ASF
:FULLY-SPECIFIED
:DEGREES
891
root 9.24346 22.6511 -14.1472 -154.806 -1.97492 177.397
lowerback -31.0234 -1.44729 -6.79038
upperback -2.61079 -0.493861 -0.238751
thorax 13.274 -0.990809 3.122
lowerneck -1.98307 -2.26587 -2.10926
upperneck 7.60816 -3.32575 2.77719
head 2.86057 -1.69917 1.15213
rclavicle -1.46604e-015 7.95139e-016
rhumerus -36.3613 -16.6293 -77.2516
rradius 30.917
rwrist -2.78355
rhand -10.315 -51.8282
rfingers 7.12502
rthumb 15.6803 -81.2129
lclavicle -1.46604e-015 7.95139e-016
lhumerus -33.1414 11.8647 76.3887
lradius 14.0782
lwrist -15.745
lhand -18.2144 -12.2468
lfingers 7.12502
lthumb 8.06337 17.5794
rfemur -20.8525 5.04937 17.5284
rtibia 4.47104
rfoot -17.6769 -3.38119
rtoes -26.3217
lfemur -22.3596 -9.07523 -22.4933
ltibia 8.58787
lfoot -7.87052 -1.05869
ltoes -35.9671
892
root 9.2514 22.6502 -14.1556 -154.727 -1.85313 177.313
lowerback -31.0193 -1.42263 -6.94361
upperback -2.71509 -0.429614 -0.301926
thorax 13.1418 -0.972605 3.15928
lowerneck -2.08641 -2.31742 -1.8162
upperneck 7.51139 -3.37174 2.46844
head 2.8336 -1.71885 0.998445
rclavicle 3.10601e-015 -1.25234e-014
rhumerus -36.3138 -16.2982 -77.558
rradius 31.0405
rwrist -3.12399
rhand -10.7536 -51.8973
rfingers 7.12502
rthumb 15.2578 -81.3146
lclavicle 3.10601e-015 -1.25234e-014
lhumerus -33.0784 12.0471 76.1953
lradius 14.07
lwrist -16.008
lhand -17.8963 -11.765
lfingers 7.12502
lthumb 8.37041 18.0492
rfemur -20.9081 5.36075 17.3567
rtibia 4.37732
rfoot -18.0116 -3.61266
rtoes -25.4629
lfemur -22.4155 -9.0869 -22.5351
ltibia 8.55707
lfoot -7.89346 -0.954579
ltoes -35.6615
893
root 9.25576 22.6486 -14.169 -154.681 -1.80999 177.319
lowerback -31.0672 -1.39184 -6.94995
upperback -2.76629 -0.39501 -0.337126
thorax 13.0989 -0.960026 3.13627
lowerneck -2.29892 -2.34315 -1.30578
upperneck 7.58387 -3.38132 1.89456
head 2.87212 -1.72354 0.721756
rclavicle -7.76503e-015 3.93594e-014
rhumerus -36.218 -16.1242 -77.7691
rradius 31.0283
rwrist -3.18405
rhand -11.0441 -51.8572
rfingers 7.12502
rthumb 14.978 -81.2956
lclavicle -7.76503e-015 3.93594e-014
lhumerus -32.9884 12.0892 76.1099
lradius 14.0866
lwrist -16.0993
lhand -17.9641 -12.0488
lfingers 7.12502
lthumb 8.30499 17.768
rfemur -20.8864 5.50249 17.3558
rtibia 4.31567
rfoot -17.9948 -3.71948
rtoes -25.0519
lfemur -22.3763 -9.04281 -22.5229
ltibia 8.46464
lfoot -7.90157 -0.898676
ltoes -35.6411
894
root 9.25596 22.6456 -14.1859 -154.613 -1.81397 177.423
lowerback -31.2694 -1.35195 -6.82872
upperback -2.75281 -0.376065 -0.322428
thorax 13.2013 -0.951196 3.09073
lowerneck -2.70233 -2.32313 -1.24371
upperneck 7.85678 -3.34908 1.76065
head 3.03543 -1.70716 0.663268
rclavicle -6.41081e-015 1.2921e-014
rhumerus -35.9721 -16.0388 -77.917
rradius 30.7898
rwrist -3.03035
rhand -10.9482 -51.6918
rfingers 7.12502
rthumb 15.0703 -81.1232
lclavicle -6.41081e-015 1.2921e-014
lhumerus -32.8756 12.023 76.1599
lradius 14.2065
lwrist -16.041
lhand -18.4684 -12.7925
lfingers 7.12502
lthumb 7.81822 17.0429
rfemur -20.8525 5.33422 17.5449
rtibia 4.2532
rfoot -18.0227 -3.47206
rtoes -24.9267
lfemur -22.3311 -8.95294 -22.432
ltibia 8.37192
lfoot -7.89783 -0.947107
ltoes -35.2729
895
root 9.25968 22.6446 -14.1984 -154.472 -1.81938 177.496
lowerback -31.5028 -1.3384 -6.81763
upperback -2.75492 -0.35978 -0.285698
thorax 13.2977 -0.951266 3.12627
lowerneck -2.15726 -2.29971 -1.93581
upperneck 6.35854 -3.2772 2.70023
head 2.46649 -1.64902 1.09864
rclavicle 1.80149e-015 -1.39149e-015
rhumerus -35.7368 -15.9319 -78.0482
rradius 30.7569
rwrist -2.93702
rhand -10.4377 -52.1233
rfingers 7.12502
rthumb 15.5621 -81.5172
lclavicle 1.80149e-015 -1.39149e-015
lhumerus -32.6672 12.017 76.2397
lradius 14.2549
lwrist -15.9895
lhand -18.6778 -13.0633
lfingers 7.12502
lthumb 7.61619 16.7796
rfemur -20.9446 5.29523 17.6567
rtibia 4.25422
rfoot -17.6552 -3.3845
rtoes -25.9301
lfemur -22.4557 -8.82157 -22.334
ltibia 8.40308
lfoot -7.88006 -1.09109
ltoes -34.642
896
root 9.26553 22.645 -14.2081 -154.455 -1.79764 177.477
lowerback -31.4999 -1.32931 -6.90145
upperback -2.7911 -0.32713 -0.296132
thorax 13.2498 -0.941916 3.17228
lowerneck -2.13535 -2.17108 -1.84481
upperneck 6.36834 -3.12189 2.84009
head 2.46299 -1.56742 1.13263
rclavicle -3.73964e-015 1.33186e-014
rhumerus -35.6788 -15.8961 -78.1514
rradius 30.8508
rwrist -2.85692
rhand -10.599 -51.9039
rfingers 7.12502
rthumb 15.4068 -81.3098
lclavicle -3.73964e-015 1.33186e-014
lhumerus -32.3898 11.9498 76.325
lradius 14.194
lwrist -15.7342
lhand -18.5504 -12.7266
lfingers 7.12502
lthumb 7.73912 17.1117
rfemur -20.8958 5.50699 17.6066
rtibia 4.22616
rfoot -16.5335 -3.5656
rtoes -27.6284
lfemur -22.3984 -8.71259 -22.3446
ltibia 8.32006
lfoot -7.79108 -1.17516
ltoes -34.5817
897
root 9.26853 22.6435 -14.2184 -154.531 -1.77348 177.475
lowerback -31.3687 -1.29466 -6.90127
upperback -2.84234 -0.29521 -0.327716
thorax 13.1308 -0.924124 3.15248
lowerneck -2.00697 -2.36282 -2.42239
upperneck 5.67955 -3.358 3.4738
head 2.24806 -1.67722 1.43272
rclavicle 2.67117e-015 4.57205e-015
rhumerus -35.7533 -15.8424 -78.2446
rradius 30.9551
rwrist -2.7181
rhand -10.7999 -51.3593
rfingers 7.12502
rthumb 15.2132 -80.78
lclavicle 2.67117e-015 4.57205e-015
lhumerus -32.1871 11.7566 76.4369
lradius 14.2133
lwrist -15.3965
lhand -18.5539 -12.2382
lfingers 7.12502
lthumb 7.73574 17.6003
rfemur -20.7374 5.59844 17.6119
rtibia 4.18185
rfoot -16.5408 -3.6057
rtoes -27.6506
lfemur -22.173 -8.64569 -22.3699
ltibia 8.11439
lfoot -7.67931 -1.18394
ltoes -34.8414
898
root 9.27219 22.6409 -14.228 -154.487 -1.75758 177.506
lowerback -31.3691 -1.26794 -6.89698
upperback -2.92253 -0.28156 -0.330905
thorax 13.0369 -0.919876 3.15094
lowerneck -2.1219 -2.34962 -2.07924
upperneck 5.9548 -3.34493 3.12625
head 2.34218 -1.67222 1.25962
rclavicle 1.19395e-014 -2.0276e-014
rhumerus -35.7259 -15.6895 -78.3591
rradius 30.9085
rwrist -2.73779
rhand -10.6069 -51.2634
rfingers 7.12502
rthumb 15.3992 -80.6699
lclavicle 1.19395e-014 -2.0276e-014
lhumerus -32.2196 11.2664 76.6601
lradius 14.5082
lwrist -14.8507
lhand -18.5959 -12.2843
lfingers 7.12502
lthumb 7.69516 17.5557
rfemur -20.7647 5.63038 17.6662
rtibia 4.22443
rfoot -16.6123 -3.59128
rtoes -27.5479
lfemur -22.1734 -8.48149 -22.3466
ltibia 8.07925
lfoot -7.67987 -1.28606
ltoes -35.1934
899
root 9.27746 22.6376 -14.2383 -154.422 -1.7023 177.396
lowerback -31.3988 -1.30725 -7.09306
upperback -3.02502 -0.29126 -0.337317
thorax 12.9286 -0.938824 3.24272
lowerneck -1.22048 -2.3692 -2.42101
upperneck 4.70281 -3.34258 3.56415
head 1.79025 -1.67278 1.4687
rclavicle 6.80837e-015 -2.76311e-014
rhumerus -35.5515 -15.5061 -78.4663
rradius 30.5781
rwrist -2.76572
rhand -10.4593 -51.2236
rfingers 7.12502
rthumb 15.5413 -80.6191
lclavicle 6.80837e-015 -2.76311e-014
lhumerus -32.4539 10.5868 76.9684
lradius 15.0258
lwrist -14.0112
lhand -18.5508 -12.695
lfingers 7.12502
lthumb 7.73873 17.1434
rfemur -20.8142 5.75299 17.5222
rtibia 4.2755
rfoot -16.6949 -3.71039
rtoes -27.6327
lfemur -22.2061 -8.29164 -22.5054
ltibia 8.10274
lfoot -7.72182 -1.44339
ltoes -35.9186
900
root 9.2802 22.6354 -14.2487 -154.48 -1.68721 177.335
lowerback -31.3189 -1.32121 -7.20114
upperback -3.07245 -0.286434 -0.347438
thorax 12.8375 -0.940762 3.29232
lowerneck -1.43395 -2.51328 -1.88529
upperneck 5.09345 -3.52126 2.77808
head 1.92737 -1.7655 1.11749
rclavicle -3.27995e-015 2.62396e-014
rhumerus -35.3985 -15.4276 -78.5669
rradius 30.3587
rwrist -2.62904
rhand -10.3312 -51.4283
rfingers 7.12502
rthumb 15.6647 -80.8142
lclavicle -3.27995e-015 2.62396e-014
lhumerus -32.5295 9.91735 77.3251
lradius 15.544
lwrist -13.1946
lhand -18.4024 -12.3744
lfingers 7.12502
lthumb 7.88196 17.4586
rfemur -20.6823 5.74923 17.4823
rtibia 4.24453
rfoot -16.7191 -3.7095
rtoes -27.8756
lfemur -22.0494 -8.18159 -22.6286
ltibia 8.03716
lfoot -7.74049 -1.56843
ltoes -36.2098
901
root 9.28154 22.6342 -14.2583 -154.526 -1.71979 177.42
lowerback -31.3058 -1.24599 -7.11302
upperback -3.00332 -0.198499 -0.360691
thorax 12.9041 -0.893282 3.26689
lowerneck -1.73468 -2.60594 -1.69939
upperneck 5.14766 -3.63225 2.56851
head 1.99162 -1.81701 1.01282
rclavicle -1.03989e-014 2.48481e-014
rhumerus -35.1528 -15.4478 -78.6937
rradius 30.2995
rwrist -2.59763
rhand -10.1791 -51.994
rfingers 7.12502
rthumb 15.8112 -81.3683
lclavicle -1.03989e-014 2.48481e-014
lhumerus -32.238 9.38896 77.6652
lradius 15.9285
lwrist -12.7386
lhand -18.235 -11.7475
lfingers 7.12502
lthumb 8.04349 18.0794
rfemur -20.6056 5.60453 17.6575
rtibia 4.27133
rfoot -16.7522 -3.52446
rtoes -27.8224
lfemur -21.9108 -8.11681 -22.5521
ltibia 7.95138
lfoot -7.73488 -1.65393
ltoes -36.1346
902
root 9.28504 22.6324 -14.2659 -154.517 -1.73525 177.471
lowerback -31.3223 -1.22164 -7.13434
upperback -2.94776 -0.147677 -0.327547
thorax 12.9701 -0.870319 3.33496
lowerneck -1.66368 -2.55602 -1.83398
upperneck 4.37327 -3.54205 2.90974
head 1.73793 -1.76326 1.14932
rclavicle 1.60767e-014 -4.6118e-014
rhumerus -34.8964 -15.3294 -78.7947
rradius 30.2631
rwrist -2.68949
rhand -10.2003 -52.3971
rfingers 7.12502
rthumb 15.7907 -81.7731
lclavicle 1.60767e-014 -4.6118e-014
lhumerus -31.9185 9.17288 77.9162
lradius 16.1518
lwrist -12.6333
lhand -18.2879 -11.6737
lfingers 7.12502
lthumb 7.99249 18.1552
rfemur -20.6746 5.53338 17.7629
rtibia 4.47961
rfoot -16.8815 -3.4218
rtoes -27.6298
lfemur -21.8736 -8.08342 -22.4834
ltibia 7.92549
lfoot -7.71125 -1.69859
ltoes -36.1227
903
root 9.28862 22.6327 -14.2701 -154.532 -1.76234 177.502
lowerback -31.2483 -1.24802 -7.1812
upperback -3.06021 -0.200265 -0.295218
thorax 12.814 -0.897049 3.37413
lowerneck -1.66925 -2.60767 -1.36828
upperneck 4.64939 -3.60404 2.24009
head 1.80159 -1.79988 0.855435
rclavicle 5.46658e-015 2.18663e-014
rhumerus -35.0602 -15.2552 -78.8405
rradius 30.392
rwrist -2.62802
rhand -10.5636 -52.0786
rfingers 7.12502
rthumb 15.4409 -81.4819
lclavicle 5.46658e-015 2.18663e-014
lhumerus -31.9352 8.88231 78.0795
lradius 16.3144
lwrist -12.2997
lhand -18.4948 -11.8247
lfingers 7.12502
lthumb 7.79278 18.0117
rfemur -20.6787 5.65087 17.8044
rtibia 4.5937
rfoot -16.9894 -3.54869
rtoes -27.636
lfemur -21.883 -8.18753 -22.4012
ltibia 8.03366
lfoot -7.79908 -1.6236
ltoes -36.123
904
root 9.29121 22.6346 -14.2731 -154.563 -1.79545 177.488
lowerback -31.2217 -1.24826 -7.18393
upperback -2.93737 -0.167781 -0.305937
thorax 12.9408 -0.878186 3.37924
lowerneck -2.39215 -2.73063 -1.33311
upperneck 4.88042 -3.75347 2.10584
head 2.00408 -1.86812 0.793788
rclavicle 5.91384e-015 3.97569e-016
rhumerus -34.8203 -15.5014 -78.903
rradius 30.6218
rwrist -2.53778
rhand -10.778 -51.6493
rfingers 7.12502
rthumb 15.2343 -81.0684
lclavicle 5.91384e-015 3.97569e-016
lhumerus -31.3523 8.74869 78.3175
lradius 16.3229
lwrist -11.9629
lhand -18.526 -11.7638
lfingers 7.12502
lthumb 7.76266 18.0737
rfemur -20.659 5.97939 17.748
rtibia 4.63091
rfoot -17.0269 -3.92981
rtoes -27.7827
lfemur -21.9226 -8.42574 -22.3492
ltibia 8.21305
lfoot -7.97387 -1.42906
ltoes -36.2735
